<svg width="23" height="24" viewBox="0 0 23 24" fill="none" xmlns="http://www.w3.org/2000/svg">
<g id="solar:bell-bold">
<path id="Vector" d="M8.33006 19.7269C8.73801 20.2427 9.25785 20.6591 9.85032 20.9447C10.4428 21.2302 11.0924 21.3773 11.7501 21.375C12.4077 21.3773 13.0573 21.2302 13.6498 20.9447C14.2423 20.6591 14.7621 20.2427 15.1701 19.7269C12.9004 20.0345 10.5997 20.0345 8.33006 19.7269ZM18.0782 9.1875V9.8475C18.0782 10.6397 18.3032 11.4141 18.7269 12.0731L19.7657 13.6884C20.7135 15.1641 19.9897 17.1694 18.3407 17.6353C14.0317 18.8559 9.46841 18.8559 5.15943 17.6353C3.51037 17.1694 2.78662 15.1641 3.73443 13.6884L4.77318 12.0731C5.19841 11.4088 5.42391 10.6363 5.42287 9.8475V9.1875C5.42287 5.56313 8.25599 2.625 11.7501 2.625C15.2441 2.625 18.0782 5.56313 18.0782 9.1875Z" fill="#555555"/>
</g>
</svg>
