<svg width="17" height="17" viewBox="0 0 17 17" fill="none" xmlns="http://www.w3.org/2000/svg">
<g id="solar:database-bold-duotone">
<g id="Group">
<path id="Vector" d="M8.66658 7.16667C11.6119 7.16667 13.9999 5.97334 13.9999 4.5C13.9999 3.02667 11.6119 1.83334 8.66658 1.83334C5.72125 1.83334 3.33325 3.02667 3.33325 4.5C3.33325 5.97334 5.72125 7.16667 8.66658 7.16667Z" fill="#555555"/>
<path id="Vector_2" opacity="0.5" d="M3.33325 8.5V12.5C3.33325 13.9733 5.72125 15.1667 8.66658 15.1667C11.6119 15.1667 13.9999 13.9733 13.9999 12.5V8.5C13.9999 9.97333 11.6119 11.1667 8.66658 11.1667C5.72125 11.1667 3.33325 9.97333 3.33325 8.5Z" fill="#555555"/>
<path id="Vector_3" opacity="0.7" d="M3.33325 4.5V8.5C3.33325 9.97333 5.72125 11.1667 8.66658 11.1667C11.6119 11.1667 13.9999 9.97333 13.9999 8.5V4.5C13.9999 5.97333 11.6119 7.16667 8.66658 7.16667C5.72125 7.16667 3.33325 5.97333 3.33325 4.5Z" fill="#555555"/>
</g>
</g>
</svg>
