<svg width="20" height="21" viewBox="0 0 20 21" fill="none" xmlns="http://www.w3.org/2000/svg">
<g id="solar:hamburger-menu-outline">
<path id="Vector" fill-rule="evenodd" clip-rule="evenodd" d="M17.2917 6.33334C17.2917 6.4991 17.2259 6.65807 17.1086 6.77528C16.9914 6.89249 16.8325 6.95834 16.6667 6.95834H3.33337C3.16761 6.95834 3.00864 6.89249 2.89143 6.77528C2.77422 6.65807 2.70837 6.4991 2.70837 6.33334C2.70837 6.16758 2.77422 6.0086 2.89143 5.89139C3.00864 5.77418 3.16761 5.70834 3.33337 5.70834H16.6667C16.8325 5.70834 16.9914 5.77418 17.1086 5.89139C17.2259 6.0086 17.2917 6.16758 17.2917 6.33334ZM17.2917 10.5C17.2917 10.6658 17.2259 10.8247 17.1086 10.9419C16.9914 11.0592 16.8325 11.125 16.6667 11.125H3.33337C3.16761 11.125 3.00864 11.0592 2.89143 10.9419C2.77422 10.8247 2.70837 10.6658 2.70837 10.5C2.70837 10.3342 2.77422 10.1753 2.89143 10.0581C3.00864 9.94085 3.16761 9.875 3.33337 9.875H16.6667C16.8325 9.875 16.9914 9.94085 17.1086 10.0581C17.2259 10.1753 17.2917 10.3342 17.2917 10.5ZM17.2917 14.6667C17.2917 14.8324 17.2259 14.9914 17.1086 15.1086C16.9914 15.2258 16.8325 15.2917 16.6667 15.2917H3.33337C3.16761 15.2917 3.00864 15.2258 2.89143 15.1086C2.77422 14.9914 2.70837 14.8324 2.70837 14.6667C2.70837 14.5009 2.77422 14.3419 2.89143 14.2247C3.00864 14.1075 3.16761 14.0417 3.33337 14.0417H16.6667C16.8325 14.0417 16.9914 14.1075 17.1086 14.2247C17.2259 14.3419 17.2917 14.5009 17.2917 14.6667Z" fill="#555555"/>
</g>
</svg>
