<svg width="16" height="16" viewBox="0 0 16 16" fill="none" xmlns="http://www.w3.org/2000/svg">
<g id="ph:lightning-a-fill">
<path id="Vector" d="M10.8669 7.41125L4.91687 13.8394C4.84193 13.9209 4.74204 13.9753 4.63286 13.9939C4.52369 14.0126 4.41141 13.9945 4.31365 13.9424C4.21589 13.8903 4.13819 13.8073 4.09273 13.7063C4.04727 13.6053 4.03664 13.4921 4.06249 13.3844L4.91687 9.78687L1.79186 8.38437C1.71952 8.35184 1.65595 8.30255 1.60642 8.2406C1.55688 8.17864 1.5228 8.10579 1.50699 8.02805C1.49117 7.95032 1.49408 7.86994 1.51547 7.79355C1.53685 7.71717 1.57611 7.64697 1.62999 7.58875L7.57999 1.16062C7.65452 1.0774 7.75478 1.02153 7.86477 1.00194C7.97475 0.982343 8.08813 1.00015 8.18682 1.05251C8.28551 1.10488 8.36381 1.18878 8.40925 1.29085C8.45468 1.39291 8.46462 1.50725 8.43749 1.61562L7.58187 5.21312L10.7069 6.615C10.7793 6.64751 10.843 6.6968 10.8926 6.75881C10.9422 6.82082 10.9763 6.89375 10.9922 6.97158C11.008 7.0494 11.005 7.12987 10.9836 7.20633C10.9621 7.28278 10.9228 7.35303 10.8687 7.41125H10.8669ZM14.7237 13.9469C14.6544 13.9819 14.5777 14.0001 14.5 14C14.4071 14.0001 14.316 13.9743 14.237 13.9255C14.1579 13.8767 14.0941 13.8068 14.0525 13.7237L13.4406 12.5H11.0587L10.4469 13.7237C10.3875 13.8424 10.2835 13.9325 10.1577 13.9744C10.0318 14.0163 9.89453 14.0065 9.77593 13.9472C9.65733 13.8878 9.56716 13.7838 9.52525 13.658C9.48335 13.5322 9.49315 13.3948 9.55249 13.2762L11.8025 8.77625C11.844 8.69321 11.9079 8.62337 11.9868 8.57457C12.0658 8.52576 12.1568 8.49991 12.2497 8.49991C12.3425 8.49991 12.4335 8.52576 12.5125 8.57457C12.5915 8.62337 12.6553 8.69321 12.6969 8.77625L14.9469 13.2762C15.0061 13.3948 15.0159 13.532 14.9741 13.6577C14.9323 13.7835 14.8422 13.8875 14.7237 13.9469ZM12.9406 11.5L12.25 10.1181L11.5587 11.5H12.9406Z" fill="#070707"/>
</g>
</svg>
