<svg width="23" height="23" viewBox="0 0 23 23" fill="none" xmlns="http://www.w3.org/2000/svg">
<g id="Moon ">
<g id="Group">
<path id="Vector" d="M18.6562 2.1627C18.623 2.07776 18.565 2.00479 18.4898 1.95335C18.4145 1.90191 18.3254 1.87439 18.2343 1.87439C18.1431 1.87439 18.0541 1.90191 17.9788 1.95335C17.9035 2.00479 17.8455 2.07776 17.8124 2.1627L17.4093 3.18926C17.3867 3.24729 17.3524 3.30004 17.3085 3.34423C17.2646 3.38842 17.2121 3.42311 17.1543 3.44614L16.1315 3.85114C16.0468 3.88488 15.9741 3.94325 15.923 4.01871C15.8718 4.09417 15.8444 4.18325 15.8444 4.27442C15.8444 4.36559 15.8718 4.45467 15.923 4.53013C15.9741 4.60559 16.0468 4.66396 16.1315 4.6977L17.1543 5.1027C17.2122 5.12543 17.2647 5.1599 17.3086 5.20395C17.3525 5.24801 17.3868 5.30067 17.4093 5.35864L17.8124 6.38426C17.9643 6.76864 18.5062 6.76864 18.6562 6.38426L19.0593 5.3577C19.0821 5.29976 19.1166 5.24714 19.1606 5.20311C19.2047 5.15908 19.2573 5.12458 19.3152 5.10176L20.338 4.69676C20.4227 4.66303 20.4954 4.60465 20.5465 4.52919C20.5977 4.45373 20.625 4.36465 20.625 4.27348C20.625 4.18231 20.5977 4.09323 20.5465 4.01777C20.4954 3.94231 20.4227 3.88394 20.338 3.8502L19.3152 3.4452C19.2572 3.42228 19.2045 3.38764 19.1605 3.34344C19.1164 3.29924 19.082 3.24644 19.0593 3.18833L18.6562 2.1627ZM15.0308 7.62176C14.9977 7.53682 14.9397 7.46386 14.8645 7.41241C14.7892 7.36097 14.7001 7.33345 14.609 7.33345C14.5178 7.33345 14.4287 7.36097 14.3535 7.41241C14.2782 7.46386 14.2202 7.53682 14.1871 7.62176L14.0399 7.99583C14.0172 8.05368 13.9828 8.10624 13.939 8.15027C13.8951 8.19429 13.8427 8.22884 13.7849 8.25176L13.4118 8.39989C13.3271 8.43363 13.2544 8.492 13.2033 8.56746C13.1521 8.64292 13.1248 8.732 13.1248 8.82317C13.1248 8.91434 13.1521 9.00342 13.2033 9.07888C13.2544 9.15434 13.3271 9.21271 13.4118 9.24645L13.7849 9.39364C13.9021 9.44051 13.994 9.53239 14.0399 9.65051L14.1871 10.0246C14.338 10.409 14.8799 10.409 15.0308 10.0246L15.178 9.64958C15.2007 9.59173 15.2351 9.53916 15.279 9.49513C15.3228 9.45111 15.3753 9.41656 15.433 9.39364L15.8062 9.24645C15.8909 9.21271 15.9635 9.15434 16.0147 9.07888C16.0658 9.00342 16.0932 8.91434 16.0932 8.82317C16.0932 8.732 16.0658 8.64292 16.0147 8.56746C15.9635 8.492 15.8909 8.43363 15.8062 8.39989L15.433 8.25176C15.3753 8.22884 15.3228 8.19429 15.279 8.15027C15.2351 8.10624 15.2007 8.05368 15.178 7.99583L15.0308 7.62083V7.62176Z" fill="#555555"/>
<path id="Vector_2" d="M11.25 20.6253C16.4278 20.6253 20.625 16.4281 20.625 11.2503C20.625 10.8162 19.9744 10.7441 19.7503 11.1162C19.2724 11.9078 18.6207 12.5802 17.8444 13.0826C17.0681 13.585 16.1877 13.9041 15.2698 14.0158C14.352 14.1276 13.4207 14.0289 12.5466 13.7274C11.6725 13.4259 10.8785 12.9295 10.2246 12.2757C9.57082 11.6218 9.07436 10.8278 8.77286 9.9537C8.47137 9.07959 8.37275 8.14833 8.48447 7.23046C8.59618 6.31259 8.91532 5.43218 9.41769 4.65592C9.92006 3.87965 10.5925 3.22789 11.3841 2.74999C11.7562 2.52499 11.6841 1.87531 11.25 1.87531C6.07219 1.87531 1.875 6.07249 1.875 11.2503C1.875 16.4281 6.07219 20.6253 11.25 20.6253Z" fill="#555555"/>
</g>
</g>
</svg>
