<svg width="17" height="17" viewBox="0 0 17 17" fill="none" xmlns="http://www.w3.org/2000/svg">
<g id="solar:widget-bold-duotone" clip-path="url(#clip0_1_548)">
<g id="Group">
<path id="Vector" opacity="0.5" d="M2.11528 10.2819C1.27541 9.44204 0.855275 9.0219 0.855275 8.5C0.855275 7.9781 1.27541 7.55796 2.11528 6.71809C2.95516 5.87822 3.37529 5.45808 3.89719 5.45808C4.41909 5.45808 4.83923 5.87822 5.6791 6.71809C6.51897 7.55796 6.93911 7.9781 6.93911 8.5C6.93911 9.0219 6.51897 9.44204 5.6791 10.2819C4.83923 11.1218 4.41909 11.5419 3.89719 11.5419C3.37529 11.5419 2.95516 11.1218 2.11528 10.2819ZM10.8268 10.2819C9.98697 9.44204 9.56683 9.0219 9.56683 8.5C9.56683 7.9781 9.98697 7.55796 10.8268 6.71809C11.6667 5.87822 12.0868 5.45808 12.6087 5.45808C13.1306 5.45808 13.5508 5.87822 14.3907 6.71809C15.2305 7.55796 15.6507 7.9781 15.6507 8.5C15.6507 9.0219 15.2305 9.44204 14.3907 10.2819C13.5508 11.1218 13.1306 11.5419 12.6087 11.5419C12.0868 11.5419 11.6667 11.1218 10.8268 10.2819Z" fill="#555555"/>
<path id="Vector_2" d="M6.47106 14.6377C5.63119 13.7978 5.21105 13.3777 5.21105 12.8558C5.21105 12.3339 5.63119 11.9137 6.47106 11.0739C7.31093 10.234 7.73107 9.81386 8.25297 9.81386C8.77487 9.81386 9.19501 10.234 10.0349 11.0739C10.8748 11.9137 11.2949 12.3339 11.2949 12.8558C11.2949 13.3777 10.8748 13.7978 10.0349 14.6377C9.19501 15.4776 8.77487 15.8977 8.25297 15.8977C7.73107 15.8977 7.31093 15.4776 6.47106 14.6377ZM6.47106 5.92613C5.63119 5.08626 5.21105 4.66612 5.21105 4.14422C5.21105 3.62232 5.63119 3.20219 6.47106 2.36231C7.31093 1.52244 7.73107 1.10231 8.25297 1.10231C8.77487 1.10231 9.19501 1.52244 10.0349 2.36231C10.8748 3.20219 11.2949 3.62232 11.2949 4.14422C11.2949 4.66612 10.8748 5.08626 10.0349 5.92613C9.19501 6.766 8.77487 7.18614 8.25297 7.18614C7.73107 7.18614 7.31093 6.766 6.47106 5.92613Z" fill="#555555"/>
</g>
</g>
<defs>
<clipPath id="clip0_1_548">
<rect width="16" height="16" fill="white" transform="translate(0.333374 0.5)"/>
</clipPath>
</defs>
</svg>
