<svg width="23" height="23" viewBox="0 0 23 23" fill="none" xmlns="http://www.w3.org/2000/svg">
<g id="Sun">
<g id="Group">
<path id="Vector" d="M17.375 11.25C17.375 12.7418 16.7824 14.1726 15.7275 15.2275C14.6726 16.2824 13.2418 16.875 11.75 16.875C10.2582 16.875 8.82742 16.2824 7.77252 15.2275C6.71763 14.1726 6.125 12.7418 6.125 11.25C6.125 9.75816 6.71763 8.32742 7.77252 7.27252C8.82742 6.21763 10.2582 5.625 11.75 5.625C13.2418 5.625 14.6726 6.21763 15.7275 7.27252C16.7824 8.32742 17.375 9.75816 17.375 11.25Z" fill="#9837CA"/>
<path id="Vector_2" fill-rule="evenodd" clip-rule="evenodd" d="M11.75 1.17188C11.9365 1.17188 12.1153 1.24595 12.2472 1.37782C12.379 1.50968 12.4531 1.68852 12.4531 1.875V2.8125C12.4531 2.99898 12.379 3.17782 12.2472 3.30968C12.1153 3.44155 11.9365 3.51562 11.75 3.51562C11.5635 3.51562 11.3847 3.44155 11.2528 3.30968C11.121 3.17782 11.0469 2.99898 11.0469 2.8125V1.875C11.0469 1.68852 11.121 1.50968 11.2528 1.37782C11.3847 1.24595 11.5635 1.17188 11.75 1.17188ZM1.67188 11.25C1.67188 11.0635 1.74595 10.8847 1.87782 10.7528C2.00968 10.621 2.18852 10.5469 2.375 10.5469H3.3125C3.49898 10.5469 3.67782 10.621 3.80968 10.7528C3.94155 10.8847 4.01562 11.0635 4.01562 11.25C4.01562 11.4365 3.94155 11.6153 3.80968 11.7472C3.67782 11.879 3.49898 11.9531 3.3125 11.9531H2.375C2.18852 11.9531 2.00968 11.879 1.87782 11.7472C1.74595 11.6153 1.67188 11.4365 1.67188 11.25ZM19.4844 11.25C19.4844 11.0635 19.5585 10.8847 19.6903 10.7528C19.8222 10.621 20.001 10.5469 20.1875 10.5469H21.125C21.3115 10.5469 21.4903 10.621 21.6222 10.7528C21.754 10.8847 21.8281 11.0635 21.8281 11.25C21.8281 11.4365 21.754 11.6153 21.6222 11.7472C21.4903 11.879 21.3115 11.9531 21.125 11.9531H20.1875C20.001 11.9531 19.8222 11.879 19.6903 11.7472C19.5585 11.6153 19.4844 11.4365 19.4844 11.25ZM11.75 18.9844C11.9365 18.9844 12.1153 19.0585 12.2472 19.1903C12.379 19.3222 12.4531 19.501 12.4531 19.6875V20.625C12.4531 20.8115 12.379 20.9903 12.2472 21.1222C12.1153 21.254 11.9365 21.3281 11.75 21.3281C11.5635 21.3281 11.3847 21.254 11.2528 21.1222C11.121 20.9903 11.0469 20.8115 11.0469 20.625V19.6875C11.0469 19.501 11.121 19.3222 11.2528 19.1903C11.3847 19.0585 11.5635 18.9844 11.75 18.9844Z" fill="#9837CA"/>
<path id="Vector_3" opacity="0.5" d="M4.62324 4.12309C4.68854 4.05775 4.76607 4.00592 4.85141 3.97056C4.93674 3.93519 5.02821 3.91699 5.12059 3.91699C5.21296 3.91699 5.30443 3.93519 5.38976 3.97056C5.4751 4.00592 5.55263 4.05775 5.61793 4.12309L5.98637 4.49153C6.11057 4.62482 6.17818 4.80111 6.17497 4.98327C6.17175 5.16543 6.09796 5.33922 5.96914 5.46805C5.84031 5.59687 5.66651 5.67067 5.48436 5.67388C5.3022 5.67709 5.12591 5.60948 4.99262 5.48528L4.62324 5.11778C4.49157 4.98594 4.41761 4.80723 4.41761 4.6209C4.41761 4.43458 4.49157 4.25587 4.62324 4.12403V4.12309ZM18.8751 4.12403C19.0068 4.25587 19.0807 4.43458 19.0807 4.6209C19.0807 4.80723 19.0068 4.98594 18.8751 5.11778L18.5076 5.48622C18.3743 5.61042 18.198 5.67803 18.0159 5.67482C17.8337 5.6716 17.6599 5.59781 17.5311 5.46899C17.4023 5.34016 17.3285 5.16636 17.3253 4.98421C17.3221 4.80205 17.3897 4.62576 17.5139 4.49247L17.8814 4.12403C18.0132 3.99236 18.1919 3.9184 18.3782 3.9184C18.5646 3.9184 18.7433 3.99236 18.8751 4.12403ZM17.5129 17.0128C17.5782 16.9474 17.6558 16.8956 17.7411 16.8602C17.8264 16.8249 17.9179 16.8067 18.0103 16.8067C18.1026 16.8067 18.1941 16.8249 18.2795 16.8602C18.3648 16.8956 18.4423 16.9474 18.5076 17.0128L18.8761 17.3812C19.0003 17.5145 19.0679 17.6908 19.0647 17.873C19.0614 18.0551 18.9877 18.2289 18.8588 18.3577C18.73 18.4866 18.5562 18.5604 18.374 18.5636C18.1919 18.5668 18.0156 18.4992 17.8823 18.375L17.5129 18.0075C17.3813 17.8756 17.3073 17.6969 17.3073 17.5106C17.3073 17.3243 17.3813 17.1456 17.5129 17.0137V17.0128ZM5.98637 17.0137C6.11804 17.1456 6.192 17.3243 6.192 17.5106C6.192 17.6969 6.11804 17.8756 5.98637 18.0075L5.61793 18.3759C5.55356 18.445 5.47593 18.5004 5.38968 18.5388C5.30343 18.5773 5.21033 18.5979 5.11592 18.5996C5.02151 18.6012 4.92773 18.5839 4.84018 18.5485C4.75263 18.5132 4.6731 18.4605 4.60633 18.3938C4.53956 18.327 4.48693 18.2475 4.45156 18.1599C4.4162 18.0724 4.39883 17.9786 4.4005 17.8842C4.40217 17.7898 4.42283 17.6966 4.46126 17.6104C4.49969 17.5241 4.5551 17.4465 4.62418 17.3822L4.99168 17.0137C5.12352 16.882 5.30223 16.8081 5.48855 16.8081C5.67488 16.8081 5.85359 16.882 5.98543 17.0137H5.98637Z" fill="#9837CA"/>
</g>
</g>
</svg>
