<svg width="24" height="16" viewBox="0 0 24 16" fill="none" xmlns="http://www.w3.org/2000/svg">
<path id="Vector" d="M13.5 8.25C13.5 7.4375 13.3418 6.66211 13.0254 5.92383C12.709 5.18555 12.2812 4.54688 11.7422 4.00781C11.2031 3.46875 10.5645 3.04102 9.82617 2.72461C9.08789 2.4082 8.3125 2.25 7.5 2.25C6.6875 2.25 5.91211 2.4082 5.17383 2.72461C4.43555 3.04102 3.79688 3.46875 3.25781 4.00781C2.71875 4.54688 2.29102 5.18555 1.97461 5.92383C1.6582 6.66211 1.5 7.4375 1.5 8.25C1.5 9.0625 1.6582 9.83789 1.97461 10.5762C2.29102 11.3145 2.71875 11.9531 3.25781 12.4922C3.79688 13.0312 4.43555 13.459 5.17383 13.7754C5.91211 14.0918 6.6875 14.25 7.5 14.25C8.3125 14.25 9.08789 14.0918 9.82617 13.7754C10.5645 13.459 11.2031 13.0312 11.7422 12.4922C12.2812 11.9531 12.709 11.3145 13.0254 10.5762C13.3418 9.83789 13.5 9.0625 13.5 8.25ZM22.5 8.25C22.5 7.4375 22.3418 6.66211 22.0254 5.92383C21.709 5.18555 21.2812 4.54688 20.7422 4.00781C20.2031 3.46875 19.5645 3.04102 18.8262 2.72461C18.0879 2.4082 17.3125 2.25 16.5 2.25H11.9766C12.9062 2.95312 13.6426 3.82812 14.1855 4.875C14.7285 5.92188 15 7.04688 15 8.25C15 9.45312 14.7285 10.5781 14.1855 11.625C13.6426 12.6719 12.9062 13.5469 11.9766 14.25H16.5C17.3125 14.25 18.0879 14.0918 18.8262 13.7754C19.5645 13.459 20.2031 13.0312 20.7422 12.4922C21.2812 11.9531 21.709 11.3145 22.0254 10.5762C22.3418 9.83789 22.5 9.0625 22.5 8.25ZM24 8.25C24 9.26562 23.8008 10.2363 23.4023 11.1621C23.0039 12.0879 22.4707 12.8848 21.8027 13.5527C21.1348 14.2207 20.3379 14.7539 19.4121 15.1523C18.4863 15.5508 17.5156 15.75 16.5 15.75H7.5C6.48438 15.75 5.51367 15.5508 4.58789 15.1523C3.66211 14.7539 2.86523 14.2207 2.19727 13.5527C1.5293 12.8848 0.996094 12.0879 0.597656 11.1621C0.199219 10.2363 0 9.26562 0 8.25C0 7.23438 0.199219 6.26367 0.597656 5.33789C0.996094 4.41211 1.5293 3.61523 2.19727 2.94727C2.86523 2.2793 3.66211 1.74609 4.58789 1.34766C5.51367 0.949219 6.48438 0.75 7.5 0.75H16.5C17.5156 0.75 18.4863 0.949219 19.4121 1.34766C20.3379 1.74609 21.1348 2.2793 21.8027 2.94727C22.4707 3.61523 23.0039 4.41211 23.4023 5.33789C23.8008 6.26367 24 7.23438 24 8.25Z" fill="#070707"/>
</svg>
