<svg width="16" height="17" viewBox="0 0 16 17" fill="none" xmlns="http://www.w3.org/2000/svg">
<g id="solar:widget-5-bold">
<path id="Vector" d="M8.66671 10.7667C8.66671 9.384 8.66671 8.69267 9.10604 8.26267C9.54537 7.83334 10.2527 7.83334 11.6667 7.83334C13.0807 7.83334 13.788 7.83334 14.2274 8.26267C14.6667 8.69334 14.6667 9.384 14.6667 10.7667V12.2333C14.6667 13.616 14.6667 14.3073 14.2274 14.7373C13.788 15.1667 13.0807 15.1667 11.6667 15.1667C10.2527 15.1667 9.54537 15.1667 9.10604 14.7373C8.66671 14.3067 8.66671 13.616 8.66671 12.2333V10.7667ZM1.33337 6.23334C1.33337 7.616 1.33337 8.30734 1.77271 8.73734C2.21204 9.16667 2.91937 9.16667 4.33337 9.16667C5.74737 9.16667 6.45471 9.16667 6.89404 8.73734C7.33337 8.30667 7.33337 7.616 7.33337 6.23334V4.76667C7.33337 3.384 7.33337 2.69267 6.89404 2.26267C6.45471 1.83334 5.74737 1.83334 4.33337 1.83334C2.91937 1.83334 2.21204 1.83334 1.77271 2.26267C1.33337 2.69334 1.33337 3.384 1.33337 4.76667V6.23334ZM8.66671 4.16667C8.66671 3.442 8.66671 3.08 8.78071 2.79334C8.92919 2.41637 9.22124 2.11376 9.59271 1.952C9.86804 1.83334 10.218 1.83334 10.9167 1.83334H12.4167C13.1154 1.83334 13.4654 1.83334 13.7407 1.952C14.108 2.10934 14.4007 2.412 14.5527 2.79334C14.6667 3.08 14.6667 3.442 14.6667 4.16667C14.6667 4.89134 14.6667 5.25334 14.5527 5.54C14.4042 5.91697 14.1122 6.21958 13.7407 6.38134C13.4654 6.5 13.1154 6.5 12.4167 6.5H10.9167C10.218 6.5 9.86804 6.5 9.59271 6.38134C9.22124 6.21958 8.92919 5.91697 8.78071 5.54C8.66671 5.25334 8.66671 4.89134 8.66671 4.16667ZM1.33337 12.8333C1.33337 13.558 1.33337 13.92 1.44737 14.2067C1.59585 14.5836 1.88791 14.8862 2.25937 15.048C2.53471 15.1667 2.88471 15.1667 3.58337 15.1667H5.08337C5.78204 15.1667 6.13204 15.1667 6.40737 15.048C6.77471 14.8907 7.06737 14.588 7.21937 14.2067C7.33337 13.92 7.33337 13.558 7.33337 12.8333C7.33337 12.1087 7.33337 11.7467 7.21937 11.46C7.0709 11.083 6.77884 10.7804 6.40737 10.6187C6.13204 10.5 5.78204 10.5 5.08337 10.5H3.58337C2.88471 10.5 2.53471 10.5 2.25937 10.6187C1.89204 10.776 1.59937 11.0787 1.44737 11.46C1.33337 11.7467 1.33337 12.1087 1.33337 12.8333Z" fill="#9837CA"/>
</g>
</svg>
